#!OML:ASF X:\für Bonn\!DataBase\2005_08_11_Bastian_Final\c3d\Bastian.ASF
:FULLY-SPECIFIED
:DEGREES
186
root 22.1318 16.3245 -5.23502 550.089 -121.367 -161.468
lowerback 70.4227 0.499474 10.8162
upperback 17.3915 5.24212 3.5526
thorax -0.896175 1.94095 -2.2964
lowerneck -6.06831 -8.23422 3.14633
upperneck -21.8854 -11.2944 4.61906
head -5.59052 -6.55727 1.31625
rclavicle 3.18055e-015 8.5875e-014
rhumerus 54.7837 3.07446 -28.66
rradius 26.4918
rwrist -20.3417
rhand -34.1148 -10.4879
rfingers 7.12502
rthumb -7.29036 -40.3424
lclavicle 3.18055e-015 8.5875e-014
lhumerus -6.44795 -34.0076 90.0886
lradius 50.4097
lwrist 33.4719
lhand -13.346 -15.7729
lfingers 7.12502
lthumb 12.7596 13.8172
rfemur -67.5885 -21.4398 23.7922
rtibia 64.5007
rfoot -18.0375 -4.95908
rtoes 7.77092
lfemur -61.0687 -7.99951 -29.8544
ltibia 46.6255
lfoot -2.53805 -11.792
ltoes -17.1764
187
root 22.128 16.3062 -5.2489 550.026 -121.706 -161.237
lowerback 70.272 0.412143 10.9181
upperback 17.4363 5.21368 3.49717
thorax -0.836469 1.95967 -2.39191
lowerneck -6.14123 -8.36922 3.0083
upperneck -22.0051 -11.4189 4.98433
head -5.58522 -6.63832 1.45296
rclavicle -6.99722e-014 7.95139e-015
rhumerus 55.1728 3.10417 -28.5011
rradius 26.5356
rwrist -20.8411
rhand -34.1287 -10.8066
rfingers 7.12502
rthumb -7.30381 -40.6605
lclavicle -6.99722e-014 7.95139e-015
lhumerus -6.31351 -34.0378 90.1043
lradius 50.3715
lwrist 33.4966
lhand -13.4292 -15.7782
lfingers 7.12502
lthumb 12.6794 13.8169
rfemur -67.9275 -21.7467 23.8113
rtibia 64.8087
rfoot -18.2004 -4.99122
rtoes 7.745
lfemur -61.2926 -8.14739 -30.0325
ltibia 46.792
lfoot -2.51125 -12.0445
ltoes -17.0374
188
root 22.1242 16.2864 -5.26335 549.939 -122.061 -161.002
lowerback 70.1761 0.324252 11.0077
upperback 17.4603 5.18756 3.45707
thorax -0.79996 1.97417 -2.46442
lowerneck -6.18844 -8.48464 2.89282
upperneck -22.1616 -11.5196 5.32047
head -5.59849 -6.70864 1.57953
rclavicle -3.18055e-015 8.90555e-014
rhumerus 55.5261 3.12905 -28.2767
rradius 26.6398
rwrist -21.376
rhand -34.1533 -11.1176
rfingers 7.12502
rthumb -7.3275 -40.9707
lclavicle -3.18055e-015 8.90555e-014
lhumerus -6.18578 -34.0528 90.1266
lradius 50.3232
lwrist 33.4989
lhand -13.4881 -15.8219
lfingers 7.12502
lthumb 12.6226 13.7768
rfemur -68.2551 -22.0915 23.8309
rtibia 65.1352
rfoot -18.3654 -4.97441
rtoes 7.9442
lfemur -61.4957 -8.31491 -30.2027
ltibia 46.9761
lfoot -2.50122 -12.2695
ltoes -17.0095
189
root 22.1194 16.2661 -5.27779 549.83 -122.433 -160.716
lowerback 70.0518 0.226559 11.0896
upperback 17.4968 5.14295 3.41211
thorax -0.752104 1.98281 -2.53338
lowerneck -6.23419 -8.60359 2.72487
upperneck -22.3374 -11.6138 5.71126
head -5.61053 -6.77621 1.7312
rclavicle 3.18055e-015 4.77083e-015
rhumerus 55.925 3.04981 -28.2765
rradius 26.6565
rwrist -21.585
rhand -34.1266 -11.4786
rfingers 7.12502
rthumb -7.30181 -41.3326
lclavicle 3.18055e-015 4.77083e-015
lhumerus -6.07417 -34.0575 90.1508
lradius 50.3159
lwrist 33.5426
lhand -13.5851 -15.8905
lfingers 7.12502
lthumb 12.5291 13.7138
rfemur -68.6216 -22.456 23.8398
rtibia 65.4808
rfoot -18.548 -4.98546
rtoes 8.01963
lfemur -61.724 -8.51331 -30.407
ltibia 47.1688
lfoot -2.51124 -12.4994
ltoes -17.1007
190
root 22.1142 16.2439 -5.29297 549.76 -122.814 -160.456
lowerback 69.9495 0.139534 11.1713
upperback 17.5093 5.11813 3.38563
thorax -0.731642 1.99551 -2.58865
lowerneck -6.27975 -8.71025 2.57575
upperneck -22.5095 -11.6958 6.06904
head -5.62424 -6.83689 1.86954
rclavicle 7.95139e-014 -7.15625e-014
rhumerus 56.31 2.94826 -28.297
rradius 26.6433
rwrist -21.6698
rhand -34.0254 -11.8976
rfingers 7.12502
rthumb -7.20411 -41.7549
lclavicle 7.95139e-014 -7.15625e-014
lhumerus -5.99479 -34.0945 90.1824
lradius 50.3155
lwrist 33.5614
lhand -13.6983 -15.9251
lfingers 7.12502
lthumb 12.42 13.6859
rfemur -69.0025 -22.8126 23.8572
rtibia 65.8407
rfoot -18.7333 -4.98206
rtoes 8.22141
lfemur -61.9729 -8.70217 -30.5944
ltibia 47.3741
lfoot -2.49938 -12.7625
ltoes -16.9183
